# xmcd
#
# Track frame offsets:
#	150
#	19725
#	38385
#	60380
#	79135
#	95847
#	118177
#	136890
#	157280
#	176902
#	196917
#	215025
#	232425
#	248897
#
# Disc length: 3562 seconds
#
# Revision: 0
# Processed by: cddbd v1.4PL0 Copyright (c) Steve Scherf et al.
# Submitted via: EasyCDDAExtractor 4.5.0.2
#
DISCID=cd0de80e
DTITLE=KIM JONG HWAN - FOR LOVE
DYEAR=1997
DGENRE=Ballad
TTITLE0=사랑을 위하여
TTITLE1=사랑하는 이에게
TTITLE2=공존의 의미
TTITLE3=슬퍼하지마
TTITLE4=존재의 이유 II
TTITLE5=편지를 써요
TTITLE6=한 사람을 위해
TTITLE7=사랑을 위하여 (Duet with 조영남)
TTITLE8=너의 빈자리
TTITLE9=21세기에 19세기 사랑
TTITLE10=바닷가에서
TTITLE11=그리운 얼굴
TTITLE12=돌아와
TTITLE13=사랑하는 법과 용서하는 법
EXTD=
EXTT0=
EXTT1=
EXTT2=
EXTT3=
EXTT4=
EXTT5=
EXTT6=
EXTT7=
EXTT8=
EXTT9=
EXTT10=
EXTT11=
EXTT12=
EXTT13=
PLAYORDER=
